<svg width="111" height="137" viewBox="0 0 111 137" fill="none" xmlns="http://www.w3.org/2000/svg">
<path d="M109.646 137V128.861H101.524V94.9505H9.47571V128.861H1.35376V137" stroke="#55556B" stroke-width="2" stroke-linejoin="round"/>
<path d="M18.9512 104.446V108.518C18.9512 109.265 18.3452 109.871 17.5976 109.871C16.8499 109.871 16.2439 109.265 16.2439 108.518V103.893C16.2439 102.7 17.211 101.733 18.4039 101.733H21.6558C22.4049 101.733 23.0122 102.34 23.0122 103.089C23.0122 103.838 22.4049 104.446 21.6558 104.446H18.9512Z" fill="#55556B"/>
<path d="M35.1951 20.3465V24.4186C35.1951 25.1662 34.5891 25.7723 33.8415 25.7723C33.0938 25.7723 32.4878 25.1662 32.4878 24.4186V19.7937C32.4878 18.6007 33.4549 17.6337 34.6478 17.6337H43.3143C44.0634 17.6337 44.6707 18.241 44.6707 18.9901C44.6707 19.7392 44.0634 20.3465 43.3143 20.3465H35.1951Z" fill="#55556B"/>
<path fill-rule="evenodd" clip-rule="evenodd" d="M64.2977 53.9385C63.9617 53.2703 64.2325 52.4591 64.8824 52.089C71.0776 48.5614 75.7469 42.6561 77.6557 35.6162C77.8515 34.8941 78.5701 34.4295 79.301 34.5894C80.0309 34.7491 80.4965 35.4714 80.3043 36.1935C78.2149 44.0452 73.013 50.6195 66.1058 54.5123C65.4527 54.8804 64.6344 54.6084 64.2977 53.9385Z" fill="#55556B"/>
<path d="M25.7196 14.9208V14.9208C21.234 14.9208 17.5977 18.5571 17.5977 23.0427V28.5018C17.5977 32.9874 21.234 36.6237 25.7196 36.6237V36.6237" stroke="#55556B" stroke-width="2"/>
<path d="M85.2804 14.9208V14.9208C89.766 14.9208 93.4023 18.5571 93.4023 23.0427V28.5018C93.4023 32.9874 89.766 36.6237 85.2804 36.6237V36.6237" stroke="#55556B" stroke-width="2"/>
<path fill-rule="evenodd" clip-rule="evenodd" d="M24.3659 10.8515C24.3659 10.1023 24.972 9.49505 25.7196 9.49505H52.7927V10.3755L53.0706 11.2108C53.1868 11.56 53.3295 11.893 53.4956 12.2079H27.0732V33.9109C27.0732 39.1049 28.5301 43.9584 31.0567 48.0831C30.5679 48.9268 29.9635 49.6814 29.2707 50.3237C26.1705 45.6153 24.3659 39.9745 24.3659 33.9109V10.8515ZM63.0372 12.2079H72.3001C72.3611 12.1594 72.4225 12.1115 72.4845 12.0642C73.5798 11.2285 74.8321 10.5961 76.1945 10.2259C76.2345 10.215 76.2746 10.2044 76.3147 10.194C76.4237 10.1657 76.5333 10.1392 76.6436 10.1143C76.9526 10.0111 77.1586 9.80467 77.1586 9.49505H58.2074C58.3104 9.80467 58.5164 10.0111 58.7223 10.1143C58.8214 10.1391 58.9199 10.1652 59.018 10.1925C59.0706 10.2071 59.123 10.2221 59.1753 10.2374C60.5233 10.633 61.774 11.2627 62.8707 12.0813C62.9266 12.123 62.9821 12.1652 63.0372 12.2079ZM83.9269 12.2079H81.9483C82.3316 11.4521 82.5732 10.552 82.5732 9.49505H85.2805C86.0281 9.49505 86.6342 10.1023 86.6342 10.8515V33.9109C86.6342 48.24 76.5568 60.2078 63.1169 63.0911C60.7806 68.323 60.8122 74.3546 63.2381 79.5467C68.9849 81.6136 73.0976 87.1209 73.0976 93.5941V94.9505H70.3903V93.5941C70.3903 88.1298 66.8067 83.5008 61.8627 81.9448C61.5135 81.8349 61.2236 81.5879 61.0591 81.2602C57.9157 74.9986 57.901 67.5875 60.9637 61.3017C61.151 60.9172 61.5084 60.6438 61.928 60.5641C74.4547 58.1847 83.9269 47.1548 83.9269 33.9109V12.2079ZM32.6567 54.5703C35.8694 57.9248 39.8567 60.5285 44.3306 62.0931C44.5034 61.9576 44.6793 61.8259 44.8582 61.6983C45.1942 61.4586 45.5408 61.233 45.897 61.0226C46.408 60.7208 46.939 60.4501 47.4878 60.2133C42.4568 58.9386 37.9867 56.2522 34.5216 52.5994C33.9594 53.3129 33.3352 53.9731 32.6567 54.5703ZM51.1386 64.7053L51.3507 64.6575C53.0002 70.1204 52.5399 76.0832 49.941 81.2602C49.7765 81.5879 49.4866 81.8349 49.1374 81.9448C44.1934 83.5008 40.6098 88.1298 40.6098 93.5941V94.9505H37.9025V93.5941C37.9025 87.1209 42.0152 81.6136 47.762 79.5467C49.8073 75.1691 50.1507 70.1947 48.8078 65.606C49.5368 65.1956 50.3202 64.8898 51.1386 64.7053Z" fill="#55556B"/>
<rect y="127.505" width="111" height="9.49505" rx="1" fill="#55556B"/>
<rect x="24.366" y="108.515" width="62.2683" height="2.71287" rx="1.35643" fill="#55556B"/>
<rect x="24.366" y="116.653" width="62.2683" height="2.71287" rx="1.35643" fill="#55556B"/>
<rect x="32.4878" y="29.8416" width="2.70732" height="8.13861" rx="1.35366" fill="#55556B"/>
<path d="M26.3963 59.4119C31.8109 60.7683 36.1427 64.9733 37.3609 70.399C37.4963 70.806 37.767 71.0773 38.1731 71.0773C38.5792 71.0773 38.85 70.806 38.9853 70.399C40.339 64.9733 44.5353 60.6327 49.95 59.4119C50.3561 59.2763 50.6268 59.005 50.6268 58.598C50.6268 58.1911 50.3561 57.9198 49.95 57.7842C44.5353 56.4277 40.339 52.2228 38.9853 46.7971C38.85 46.3901 38.5792 46.1188 38.1731 46.1188C37.767 46.1188 37.4963 46.3901 37.3609 46.7971C36.0073 52.2228 31.8109 56.5634 26.3963 57.7842C25.9902 57.9198 25.7195 58.1911 25.7195 58.598C25.8548 59.005 26.1256 59.2763 26.3963 59.4119Z" fill="#68C6DF"/>
<path d="M58.7223 10.1143C62.8421 11.1464 66.1379 14.3458 67.0649 18.4741C67.1679 18.7837 67.3739 18.9901 67.6829 18.9901C67.9919 18.9901 68.1979 18.7837 68.3009 18.4741C69.3308 14.3458 72.5237 11.0432 76.6435 10.1143C76.9525 10.0111 77.1585 9.80467 77.1585 9.49505C77.1585 9.18543 76.9525 8.97902 76.6435 8.87581C72.5237 7.84374 69.3308 4.64432 68.3009 0.516035C68.1979 0.206414 67.9919 0 67.6829 0C67.3739 0 67.1679 0.206414 67.0649 0.516035C66.035 4.64432 62.8421 7.94694 58.7223 8.87581C58.4133 8.97902 58.2073 9.18543 58.2073 9.49505C58.3103 9.80467 58.5163 10.0111 58.7223 10.1143Z" fill="#68C6DF"/>
</svg>
