<svg width="117" height="102" viewBox="0 0 117 102" fill="none" xmlns="http://www.w3.org/2000/svg">
<rect x="63.9419" y="58.48" width="6.80232" height="42.16" fill="#55556B"/>
<path d="M41.0236 33.153L47.5941 31.393L54.6364 57.6662L48.0658 59.4262L41.0236 33.153Z" fill="#55556B"/>
<path fill-rule="evenodd" clip-rule="evenodd" d="M21.5916 15.8304L19.2776 16.4502C13.6609 17.9547 10.3276 23.726 11.8326 29.3409C12.6612 32.4322 15.8398 34.2667 18.9322 33.4384L38.301 28.2503L37.4207 24.9662C35.5733 18.0738 28.4863 13.9836 21.5916 15.8304ZM17.8692 11.1955C9.34935 13.4776 4.29331 22.232 6.57619 30.7489C8.18265 36.7422 14.3452 40.299 20.3406 38.6931L44.9659 32.097L42.6771 23.5582C40.0518 13.7638 29.9809 7.95131 20.1831 10.5757L17.8692 11.1955Z" fill="#55556B"/>
<path fill-rule="evenodd" clip-rule="evenodd" d="M85.1175 30.4378C85.312 31.1633 84.8813 31.9091 84.1556 32.1035C83.4298 32.2979 82.6838 31.8673 82.4893 31.1418L81.9612 29.1713L72.7624 31.6353C72.0366 31.8297 71.2906 31.3991 71.0962 30.6736C70.9017 29.9481 71.3324 29.2023 72.0582 29.0079L82.571 26.192C83.2968 25.9976 84.0428 26.4281 84.2373 27.1537L85.1175 30.4378Z" fill="#55556B"/>
<path fill-rule="evenodd" clip-rule="evenodd" d="M55.7584 6.67852L58.0724 6.0587C63.6891 4.55421 69.4625 7.88631 70.9675 13.5012C71.7961 16.5925 69.9609 19.77 66.8686 20.5983L47.4997 25.7864L46.6195 22.5022C44.772 15.6098 48.8637 8.52533 55.7584 6.67852ZM56.6639 0.804067C65.1837 -1.47803 73.9411 3.57628 76.2239 12.0932C77.8304 18.0866 74.2724 24.247 68.277 25.8529L43.6518 32.449L41.363 23.9102C38.7377 14.1158 44.5522 4.04829 54.35 1.42388L56.6639 0.804067Z" fill="#55556B"/>
<path fill-rule="evenodd" clip-rule="evenodd" d="M5.19052 41.3431C2.28747 42.1208 0.56467 45.1037 1.34254 48.0058L6.97637 69.0243C7.3653 70.4753 8.85729 71.3364 10.3088 70.9476L24.4883 67.1496V96.56C24.4883 99.5644 26.9247 102 29.9301 102H104.756C107.761 102 110.198 99.5644 110.198 96.56V59.84C110.198 58.3378 108.979 57.12 107.477 57.12H100.431C99.0137 57.6874 97.748 58.6276 96.7526 59.84H107.477V96.56C107.477 98.0622 106.258 99.28 104.756 99.28H29.9301C28.4274 99.28 27.2092 98.0622 27.2092 96.56V66.4207L51.7773 59.84H80.6726C79.6813 58.6716 78.3855 57.7263 76.8837 57.12H61.9319L72.134 54.3873C71.6625 53.7834 71.2815 53.0866 71.0233 52.3123L70.8876 51.9052L51.4191 57.12H50.3371V57.4098L9.60458 68.3203L3.97076 47.3018C3.58182 45.8507 4.44322 44.3593 5.89474 43.9705L83.4271 23.2028C84.8787 22.814 86.3707 23.6751 86.7596 25.1262L88.7737 32.6404C89.9769 32.6524 90.9825 32.969 91.8079 33.451L89.3878 24.4222C88.6099 21.5201 85.626 19.7979 82.7229 20.5755L5.19052 41.3431Z" fill="#55556B"/>
<path fill-rule="evenodd" clip-rule="evenodd" d="M29.9302 91.44C29.9302 90.8877 30.3779 90.44 30.9302 90.44H31.6511C32.2034 90.44 32.6511 90.8877 32.6511 91.44V93.84H42.5348C43.0871 93.84 43.5348 94.2877 43.5348 94.84V95.56C43.5348 96.1123 43.0871 96.56 42.5348 96.56H30.9302C30.3779 96.56 29.9302 96.1123 29.9302 95.56V91.44Z" fill="#55556B"/>
<rect x="47.6162" y="93.84" width="5.44186" height="2.71999" rx="1" fill="#55556B"/>
<path d="M76.8663 51.408C82.3081 52.768 86.6616 56.984 87.886 62.424C88.0221 62.832 88.2942 63.104 88.7023 63.104C89.1105 63.104 89.3825 62.832 89.5186 62.424C90.8791 56.984 95.0965 52.632 100.538 51.408C100.946 51.272 101.219 51 101.219 50.592C101.219 50.184 100.946 49.912 100.538 49.776C95.0965 48.416 90.8791 44.2 89.5186 38.76C89.3825 38.352 89.1105 38.08 88.7023 38.08C88.2942 38.08 88.0221 38.352 87.886 38.76C86.5256 44.2 82.3081 48.552 76.8663 49.776C76.4581 49.912 76.186 50.184 76.186 50.592C76.3221 51 76.5942 51.272 76.8663 51.408Z" fill="#68C6DF"/>
<path d="M98.4709 31.9009C102.611 32.9357 105.924 36.1435 106.856 40.2826C106.959 40.5931 107.166 40.8 107.477 40.8C107.787 40.8 107.994 40.5931 108.098 40.2826C109.133 36.1435 112.342 32.8322 116.482 31.9009C116.793 31.7974 117 31.5904 117 31.28C117 30.9696 116.793 30.7626 116.482 30.6591C112.342 29.6244 109.133 26.4165 108.098 22.2774C107.994 21.967 107.787 21.76 107.477 21.76C107.166 21.76 106.959 21.967 106.856 22.2774C105.82 26.4165 102.611 29.7278 98.4709 30.6591C98.1604 30.7626 97.9534 30.9696 97.9534 31.28C98.0569 31.5904 98.2639 31.7974 98.4709 31.9009Z" fill="#68C6DF"/>
<path d="M84.8664 10.1409C89.007 11.1757 92.3194 14.3835 93.251 18.5226C93.3546 18.833 93.5616 19.04 93.8721 19.04C94.1827 19.04 94.3897 18.833 94.4932 18.5226C95.5283 14.3835 98.7373 11.0722 102.878 10.1409C103.188 10.0374 103.395 9.83044 103.395 9.52C103.395 9.20957 103.188 9.00261 102.878 8.89913C98.7373 7.86435 95.5283 4.65652 94.4932 0.517391C94.3897 0.206957 94.1827 0 93.8721 0C93.5616 0 93.3546 0.206957 93.251 0.517391C92.2159 4.65652 89.007 7.96783 84.8664 8.89913C84.5559 9.00261 84.3489 9.20957 84.3489 9.52C84.4524 9.83044 84.6594 10.0374 84.8664 10.1409Z" fill="#68C6DF"/>
</svg>
