<svg width="129" height="103" viewBox="0 0 129 103" fill="none" xmlns="http://www.w3.org/2000/svg">
<g clip-path="url(#clip0)">
<path fill-rule="evenodd" clip-rule="evenodd" d="M17.6526 25.3302C17.6526 24.7124 18.2072 24.2424 18.8167 24.3438L28.4309 25.943C28.9759 26.0337 29.3441 26.5492 29.2531 27.0942L29.1361 27.7952C29.0451 28.3397 28.5302 28.7075 27.9856 28.6169L20.3684 27.3498V37.625C20.3684 38.1773 19.9207 38.625 19.3684 38.625H18.6526C18.1003 38.625 17.6526 38.1773 17.6526 37.625V25.3302Z" fill="#55556B"/>
<path fill-rule="evenodd" clip-rule="evenodd" d="M110.668 84.9255V78.25C110.668 77.6977 111.116 77.25 111.668 77.25H112.384C112.936 77.25 113.384 77.6977 113.384 78.25V86.3561C113.384 86.8404 113.037 87.255 112.56 87.3404L100.01 89.5886C99.467 89.686 98.9475 89.3246 98.8498 88.7813L98.724 88.0818C98.6262 87.538 98.988 87.018 99.5319 86.9205L110.668 84.9255Z" fill="#55556B"/>
<rect x="17.6526" y="43.3684" width="2.71579" height="8.13158" rx="1.35789" fill="#55556B"/>
<path d="M72.6475 22.7684C78.079 24.1237 82.4243 28.325 83.6464 33.746C83.7822 34.1526 84.0538 34.4237 84.4611 34.4237C84.8685 34.4237 85.1401 34.1526 85.2759 33.746C86.6338 28.325 90.8433 23.9881 96.2748 22.7684C96.6822 22.6329 96.9538 22.3618 96.9538 21.9552C96.9538 21.5487 96.6822 21.2776 96.2748 21.1421C90.8433 19.7868 86.6338 15.5855 85.2759 10.1644C85.1401 9.75787 84.8685 9.48682 84.4611 9.48682C84.0538 9.48682 83.7822 9.75787 83.6464 10.1644C82.2885 15.5855 78.079 19.9223 72.6475 21.1421C72.2401 21.2776 71.9685 21.5487 71.9685 21.9552C72.1043 22.3618 72.3759 22.6329 72.6475 22.7684Z" fill="#68C6DF"/>
<path d="M10.8632 96.2237C8.61332 96.2237 6.78947 94.4034 6.78947 92.1579V37.9474C6.78947 35.7019 8.61333 33.8816 10.8632 33.8816H13.5789V28.4605H4.07368C2.5738 28.4605 1.35789 29.6741 1.35789 31.1711V98.9342C1.35789 100.431 2.57379 101.645 4.07368 101.645H124.926C126.426 101.645 127.642 100.431 127.642 98.9342V31.1711C127.642 29.6741 126.426 28.4605 124.926 28.4605H116.779V33.8816H118.137C120.387 33.8816 122.211 35.7019 122.211 37.9474V92.1579C122.211 94.4034 120.387 96.2237 118.137 96.2237H90.979L66.7486 100.042C65.9244 100.172 65.1789 99.5362 65.1789 98.7034C65.1789 99.5362 64.4335 100.172 63.6093 100.042L39.3789 96.2237H10.8632Z" fill="#55556B"/>
<path fill-rule="evenodd" clip-rule="evenodd" d="M1.35789 31.1711C1.35789 29.6741 2.5738 28.4605 4.07368 28.4605H13.5789V33.8816H10.8632C8.61333 33.8816 6.78947 35.7019 6.78947 37.9474V92.1579C6.78947 94.4034 8.61332 96.2237 10.8632 96.2237H39.3789L63.6093 100.042C64.4335 100.172 65.1789 99.5362 65.1789 98.7034C65.1789 99.5362 65.9244 100.172 66.7486 100.042L90.979 96.2237H118.137C120.387 96.2237 122.211 94.4034 122.211 92.1579V37.9474C122.211 35.7019 120.387 33.8816 118.137 33.8816H116.779V28.4605H124.926C126.426 28.4605 127.642 29.6741 127.642 31.1711V98.9342C127.642 100.431 126.426 101.645 124.926 101.645H4.07368C2.57379 101.645 1.35789 100.431 1.35789 98.9342V31.1711ZM64.5268 28.4605C64.9214 28.7003 65.1789 29.1332 65.1789 29.6186C65.1789 29.1332 65.4365 28.7003 65.8311 28.4605H64.5268Z" fill="#55556B"/>
<path fill-rule="evenodd" clip-rule="evenodd" d="M118.137 21.915C118.137 20.2494 116.646 18.9779 114.998 19.2376L102.347 21.2312C102.372 21.4642 102.385 21.7055 102.385 21.9553C102.385 22.1775 102.375 22.3931 102.355 22.602C102.306 23.1145 102.2 23.5874 102.049 24.0223L115.421 21.915V90.9998L66.5368 98.7034V29.6186L72.9956 28.6008C72.4665 28.3651 71.9098 28.1723 71.33 28.0276L70.7516 27.8833L70.2933 27.6546L70.2183 27.6172C69.6583 27.3377 69.1328 26.9753 68.6621 26.5396L66.1133 26.9412C65.9065 26.9738 65.7077 27.0294 65.5195 27.1053H64.8384C64.6502 27.0294 64.4514 26.9738 64.2446 26.9412L15.3604 19.2376C13.712 18.9779 12.2211 20.2494 12.2211 21.915V27.1053H4.07368C1.82385 27.1053 0 28.9256 0 31.1711V98.9342C0 101.18 1.82385 103 4.07368 103H124.926C127.176 103 129 101.18 129 98.9342V31.1711C129 28.9256 127.176 27.1053 124.926 27.1053H118.137V21.915ZM4.07368 29.8158H12.2211V32.5263H10.8632C7.86338 32.5263 5.43158 34.9534 5.43158 37.9474V92.1579C5.43158 95.1519 7.86338 97.579 10.8632 97.579H39.2724L56.4724 100.289H4.07368C3.32374 100.289 2.71579 99.6827 2.71579 98.9342V31.1711C2.71579 30.4226 3.32374 29.8158 4.07368 29.8158ZM10.8632 35.2369H12.2211V90.9998C12.2211 92.3336 13.1933 93.4692 14.5133 93.6772L22.0724 94.8684H10.8632C9.36327 94.8684 8.14737 93.6549 8.14737 92.1579V37.9474C8.14737 36.4504 9.36327 35.2369 10.8632 35.2369ZM124.926 100.289H73.8855L91.0855 97.579H118.137C121.137 97.579 123.568 95.1519 123.568 92.1579V37.9474C123.568 34.9534 121.137 32.5263 118.137 32.5263V29.8158H124.926C125.676 29.8158 126.284 30.4226 126.284 31.1711V98.9342C126.284 99.6827 125.676 100.289 124.926 100.289ZM118.137 94.8684H108.285L115.845 93.6772C117.165 93.4692 118.137 92.3336 118.137 90.9998V35.2369C119.637 35.2369 120.853 36.4504 120.853 37.9474V92.1579C120.853 93.6549 119.637 94.8684 118.137 94.8684ZM14.9368 21.915L63.8211 29.6186V98.7034L14.9368 90.9998V21.915Z" fill="#55556B"/>
<path d="M54.8323 10.1055C58.965 11.1367 62.2712 14.3334 63.201 18.4581C63.3043 18.7674 63.511 18.9737 63.8209 18.9737C64.1309 18.9737 64.3375 18.7674 64.4408 18.4581C65.474 14.3334 68.6769 11.0336 72.8096 10.1055C73.1196 10.0024 73.3262 9.7962 73.3262 9.48684C73.3262 9.17749 73.1196 8.97125 72.8096 8.86814C68.6769 7.83696 65.474 4.6403 64.4408 0.515589C64.3375 0.206236 64.1309 0 63.8209 0C63.511 0 63.3043 0.206236 63.201 0.515589C62.1678 4.6403 58.965 7.94007 54.8323 8.86814C54.5223 8.97125 54.3157 9.17749 54.3157 9.48684C54.419 9.7962 54.6256 10.0024 54.8323 10.1055Z" fill="#68C6DF"/>
<path fill-rule="evenodd" clip-rule="evenodd" d="M53.6369 44.26C53.5199 44.9994 52.8246 45.5041 52.0838 45.3874L26.2506 41.3163C25.5098 41.1996 25.0041 40.5056 25.1211 39.7663C25.238 39.027 25.9334 38.5222 26.6741 38.639L52.5074 42.71C53.2481 42.8267 53.7538 43.5207 53.6369 44.26Z" fill="#55556B"/>
<path fill-rule="evenodd" clip-rule="evenodd" d="M53.6369 61.4148C53.5199 62.1542 52.8246 62.6589 52.0838 62.5421L26.2506 58.4711C25.5098 58.3544 25.0041 57.6604 25.1211 56.9211C25.238 56.1817 25.9334 55.677 26.6741 55.7938L52.5074 59.8648C53.2481 59.9815 53.7538 60.6755 53.6369 61.4148Z" fill="#55556B"/>
<path fill-rule="evenodd" clip-rule="evenodd" d="M77.6118 44.26C77.7288 44.9994 78.4241 45.5041 79.1649 45.3874L104.998 41.3163C105.739 41.1996 106.245 40.5056 106.128 39.7663C106.011 39.027 105.315 38.5222 104.575 38.639L78.7413 42.71C78.0005 42.8267 77.4948 43.5207 77.6118 44.26Z" fill="#55556B"/>
<path fill-rule="evenodd" clip-rule="evenodd" d="M77.6118 61.4148C77.7288 62.1542 78.4241 62.6589 79.1649 62.5421L104.998 58.4711C105.739 58.3544 106.245 57.6604 106.128 56.9211C106.011 56.1817 105.315 55.677 104.575 55.7938L78.7413 59.8648C78.0005 59.9815 77.4948 60.6755 77.6118 61.4148Z" fill="#55556B"/>
<path fill-rule="evenodd" clip-rule="evenodd" d="M77.6118 79.0332C77.7288 79.7726 78.4241 80.2773 79.1649 80.1606L104.998 76.0895C105.739 75.9728 106.245 75.2788 106.128 74.5395C106.011 73.8002 105.315 73.2954 104.575 73.4122L78.7413 77.4832C78.0005 77.5999 77.4948 78.2939 77.6118 79.0332Z" fill="#55556B"/>
<path fill-rule="evenodd" clip-rule="evenodd" d="M36.6157 74.9789C35.8055 75.5272 35.0132 76.3199 34.5053 77.3904L26.2506 76.0895C25.5098 75.9728 25.0041 75.2788 25.1211 74.5395C25.238 73.8002 25.9334 73.2954 26.6741 73.4122L36.6157 74.9789Z" fill="#55556B"/>
<path d="M52.5074 77.4832C53.2481 77.5999 53.7538 78.2939 53.6369 79.0332C53.5199 79.7726 52.8246 80.2773 52.0838 80.1606L42.0987 78.587C42.0688 78.6011 42.0388 78.615 42.0087 78.6288C41.5579 78.8354 41.0905 79.0119 40.6088 79.1556C40.482 79.1934 40.3542 79.229 40.2255 79.2622C40.1162 79.2904 40.0062 79.317 39.8956 79.3418C39.5856 79.4449 39.379 79.6512 39.379 79.9605C39.4823 80.2699 39.6889 80.4761 39.8956 80.5792C39.9949 80.604 40.0938 80.6301 40.1921 80.6573C40.2449 80.672 40.2975 80.6869 40.3499 80.7023C41.7021 81.0975 42.9567 81.7267 44.0569 82.5446C44.3541 82.7655 44.64 83.0002 44.9136 83.2478C45.1589 83.4698 45.3943 83.7022 45.6189 83.9443C45.8631 84.2076 46.0946 84.4823 46.3123 84.7677C47.1489 85.8643 47.782 87.1182 48.1526 88.4821C48.1635 88.5222 48.1741 88.5623 48.1846 88.6025C48.2128 88.7116 48.2394 88.8214 48.2643 88.9318C48.3676 89.2411 48.5743 89.4474 48.8842 89.4474C49.1942 89.4474 49.4008 89.2411 49.5041 88.9318C49.529 88.8326 49.5551 88.734 49.5824 88.6358C49.597 88.5832 49.6121 88.5307 49.6274 88.4783C50.0234 87.1287 50.6538 85.8766 51.4733 84.7785C51.6946 84.4819 51.9298 84.1965 52.1778 83.9235C52.4012 83.6777 52.6349 83.442 52.8785 83.217C53.1414 82.9742 53.4158 82.744 53.7008 82.5275C54.7995 81.6925 56.0558 81.0607 57.4224 80.6907C57.4625 80.6799 57.5027 80.6693 57.543 80.6588C57.6523 80.6306 57.7623 80.6041 57.8729 80.5792C58.1829 80.4761 58.3895 80.2699 58.3895 79.9605C58.3895 79.6512 58.1829 79.4449 57.8729 79.3418C57.7735 79.317 57.6746 79.291 57.5763 79.2637C57.5236 79.249 57.471 79.234 57.4185 79.2187C56.0614 78.8213 54.8133 78.1873 53.7202 77.3629C53.4279 77.1425 53.1468 76.9085 52.8776 76.6617C52.6295 76.4343 52.3916 76.1961 52.1645 75.9478C51.9264 75.6873 51.7003 75.4158 51.4869 75.134C50.6609 74.043 50.0257 72.7972 49.6275 71.4428C49.6156 71.4022 49.6039 71.3615 49.5924 71.3206C49.5614 71.2109 49.532 71.1004 49.5041 70.9893C49.4008 70.6799 49.1942 70.4737 48.8842 70.4737C48.5743 70.4737 48.3676 70.6799 48.2643 70.9893C48.2365 71.1003 48.2071 71.2108 48.1762 71.3206C48.1647 71.3614 48.153 71.4021 48.1411 71.4428C47.7451 72.7923 47.1146 74.0445 46.2952 75.1426C46.082 75.4283 45.856 75.7035 45.618 75.9674C45.5029 76.0949 45.3851 76.2197 45.2645 76.3418L52.5074 77.4832Z" fill="#55556B"/>
<path d="M39.8955 80.5792C44.0282 81.6104 47.3344 84.8071 48.2643 88.9318C48.3676 89.2411 48.5742 89.4474 48.8842 89.4474C49.1941 89.4474 49.4008 89.2411 49.5041 88.9318C50.5373 84.8071 53.7401 81.5073 57.8728 80.5792C58.1828 80.4761 58.3894 80.2699 58.3894 79.9605C58.3894 79.6512 58.1828 79.4449 57.8728 79.3418C53.7401 78.3107 50.5373 75.114 49.5041 70.9893C49.4008 70.6799 49.1941 70.4737 48.8842 70.4737C48.5742 70.4737 48.3676 70.6799 48.2643 70.9893C47.2311 75.114 44.0282 78.4138 39.8955 79.3418C39.5855 79.4449 39.3789 79.6512 39.3789 79.9605C39.4822 80.2699 39.6889 80.4761 39.8955 80.5792Z" fill="#68C6DF"/>
</g>
<defs>
<clipPath id="clip0">
<rect width="129" height="103" fill="white"/>
</clipPath>
</defs>
</svg>
